<svg xmlns="http://www.w3.org/2000/svg" width="1760" height="174.504" viewBox="0 0 1760 174.504">
  <path id="catchphrase" d="M17.938,1.268V-166.1H52.01V-27.164H136.73V1.268Zm142.043,0V-167.481h34.072V1.268ZM305.018-60.776V-89.207h73.439v67.223Q367.751-11.625,347.435-3.74a112.907,112.907,0,0,1-41.151,7.885q-26.475,0-46.158-11.108a70.628,70.628,0,0,1-29.583-31.77,102.669,102.669,0,0,1-9.9-44.95q0-26.36,11.05-46.849a74.423,74.423,0,0,1,32.345-31.424q16.23-8.4,40.4-8.4,31.424,0,49.094,13.18t22.734,36.432l-33.842,6.331a35.737,35.737,0,0,0-13.41-19.626q-9.842-7.194-24.576-7.194-22.331,0-35.511,14.158t-13.18,42.014Q255.751-55.02,269.1-40T304.1-24.977a58.674,58.674,0,0,0,21.468-4.2,73.566,73.566,0,0,0,18.475-10.187v-21.41ZM410,1.268V-167.481h34.072v66.417h66.763v-66.417H544.9V1.268H510.831V-72.517H444.068V1.268Zm208.115,0v-140.2H568.039v-28.547h134.1v28.547H652.183V1.268Zm171.741,0V-167.481H905.536v28.547H823.924v39.942H894.37v28.547H823.924V1.268ZM926.715-82.071q0-25.784,7.712-43.281a79.419,79.419,0,0,1,15.712-23.137,65.7,65.7,0,0,1,21.813-15.194q15.77-6.676,36.374-6.676,37.3,0,59.684,23.137T1090.4-82.876q0,40.863-22.216,63.942t-59.4,23.079q-37.64,0-59.856-22.964T926.715-82.071Zm35.108-1.151q0,28.662,13.237,43.453t33.612,14.791q20.374,0,33.439-14.676t13.065-44.029q0-29.007-12.719-43.281t-33.784-14.273q-21.065,0-33.957,14.446T961.823-83.222ZM1117.1,1.268V-167.481h71.712q27.05,0,39.309,4.547a38.778,38.778,0,0,1,19.626,16.173,48.612,48.612,0,0,1,7.367,26.59q0,18.993-11.166,31.367t-33.381,15.6a79.5,79.5,0,0,1,18.245,14.158q7.194,7.712,19.4,27.4l20.6,32.921h-40.748l-24.633-36.719q-13.122-19.683-17.957-24.806a26.147,26.147,0,0,0-10.245-7.022q-5.41-1.9-17.151-1.9h-6.906V1.268Zm34.072-97.381h25.209q24.518,0,30.619-2.072a18.351,18.351,0,0,0,9.554-7.137q3.453-5.065,3.453-12.662,0-8.518-4.547-13.755t-12.835-6.619q-4.144-.576-24.863-.576h-26.59ZM1496.154,1.268H1459.09l-14.734-38.331H1376.9L1362.974,1.268h-36.144l65.727-168.748h36.029ZM1433.421-65.5l-23.252-62.619L1387.377-65.5Zm81.727,66.763V-166.1h34.072V-27.164h84.719V1.268Zm144,0V-166.1h34.072V-27.164h84.719V1.268Z" transform="translate(-17.938 170.358)"/>
</svg>
