<svg xmlns="http://www.w3.org/2000/svg" width="345" height="134.447" viewBox="0 0 345 134.447">
  <path id="catchphrase_sp" d="M17.494-110.434v-58.438h11.9v48.511H58.971v9.927Zm49.6,0v-58.92h11.9v58.92ZM117.731-132.1v-9.927h25.642v23.472a32.279,32.279,0,0,1-10.831,6.37,39.422,39.422,0,0,1-14.368,2.753,32.249,32.249,0,0,1-16.117-3.878A24.661,24.661,0,0,1,91.727-124.4a35.848,35.848,0,0,1-3.456-15.695,33.914,33.914,0,0,1,3.858-16.358,25.986,25.986,0,0,1,11.294-10.972q5.667-2.934,14.107-2.934,10.972,0,17.141,4.6a20.78,20.78,0,0,1,7.938,12.72l-11.816,2.211a12.478,12.478,0,0,0-4.682-6.853,14.153,14.153,0,0,0-8.581-2.512q-7.8,0-12.4,4.943t-4.6,14.67q0,10.49,4.662,15.735a15.567,15.567,0,0,0,12.218,5.245,20.487,20.487,0,0,0,7.5-1.467,25.687,25.687,0,0,0,6.451-3.557V-132.1Zm36.654,21.663v-58.92h11.9v23.19h23.311v-23.19h11.9v58.92h-11.9V-136.2H166.281v25.762Zm72.665,0v-48.953H209.567v-9.967H256.39v9.967H238.947v48.953ZM17.253-36.916v-58.92H57.645v9.967h-28.5v13.946h24.6v9.967h-24.6v25.039Zm47.787-29.1a37.473,37.473,0,0,1,2.693-15.112A27.73,27.73,0,0,1,73.219-89.2a22.939,22.939,0,0,1,7.616-5.305,32.347,32.347,0,0,1,12.7-2.331q13.022,0,20.839,8.078T122.192-66.3q0,14.268-7.757,22.326T93.7-35.911q-13.142,0-20.9-8.018T65.04-66.015Zm12.258-.4q0,10.008,4.622,15.172A15.059,15.059,0,0,0,93.656-46.08,14.929,14.929,0,0,0,105.332-51.2q4.562-5.124,4.562-15.373,0-10.128-4.441-15.112a15.027,15.027,0,0,0-11.8-4.984A15.126,15.126,0,0,0,81.8-81.629Q77.3-76.585,77.3-66.416Zm54.218,29.5v-58.92h25.039q9.445,0,13.725,1.588a13.54,13.54,0,0,1,6.853,5.647,16.973,16.973,0,0,1,2.572,9.284,15.729,15.729,0,0,1-3.9,10.952q-3.9,4.321-11.655,5.446a27.755,27.755,0,0,1,6.37,4.944,67.151,67.151,0,0,1,6.772,9.565l7.194,11.495H170.26l-8.6-12.821a83.165,83.165,0,0,0-6.27-8.661,9.129,9.129,0,0,0-3.577-2.452,19.608,19.608,0,0,0-5.988-.663h-2.411v24.6Zm11.9-34h8.8q8.561,0,10.691-.723a6.407,6.407,0,0,0,3.336-2.492,7.672,7.672,0,0,0,1.206-4.421,7.065,7.065,0,0,0-1.588-4.8,7.285,7.285,0,0,0-4.481-2.311q-1.447-.2-8.681-.2h-9.284Zm120.453,34H250.924L245.779-50.3H222.227l-4.863,13.384h-12.62l22.949-58.92h12.58Zm-21.9-23.311-8.119-21.864-7.958,21.864ZM270.5-36.916V-95.354h11.9v48.511h29.581v9.927Zm50.279,0V-95.354h11.9v48.511h29.581v9.927Z" transform="translate(-17.253 170.358)"/>
</svg>
